<svg id="YunYinLogo" xmlns="http://www.w3.org/2000/svg" xmlns:xlink="http://www.w3.org/1999/xlink" x="0px" y="0px" width="500px" height="500px" viewBox="1734.25 954.73 500 500" enable-background="new 1734.25 954.73 500 500" xml:space="preserve"><circle fill="#F3D759" cx="1906.47" cy="1224.06" r="76.89"/><circle fill="#FFFFFF" cx="2028.44" cy="1257.12" r="85.44"/><polygon fill="#2277AB" points="2044.8,1132.95 2049.36,1132.95 2059.96,1115.75 2065.07,1115.75 2076.64,1103.3 2076.91,1103.3 2076.76,1103.17 2076.91,1103.01 2076.58,1103.01 2067.44,1094.94 2061.01,1094.94 2058.44,1083.59 2048.74,1083.59 2048.74,1068.83 2032.5,1068.83 2027.85,1006.86 2023.21,1068.83 2007.45,1068.83 2007.45,1083.59 1997.26,1083.59 1994.7,1094.94 1988.75,1094.94 1979.61,1103.01 1979.28,1103.01 1979.43,1103.17 1979.28,1103.3 1979.55,1103.3 1991.12,1115.75 1996.23,1115.75 2006.83,1132.95 2010.9,1132.95 2010.9,1140.39 2014.19,1140.39 1979.28,1403.23 2076.91,1403.22 2041.97,1140.39 2044.8,1140.39"/><path fill="#FFFFFF" d="M2096.81,1241.85c-29.42,0-55.36,14.87-70.73,37.5c-6.73-35.6-37.99-62.53-75.55-62.53 c-37.67,0-69.01,27.1-75.61,62.86c-6.93-2.37-14.37-3.66-22.1-3.66c-37.75,0-68.35,30.6-68.35,68.35 c0,34.04,24.89,62.27,57.47,67.48v0.57h4.47c2.11,0.2,4.25,0.3,6.41,0.3s4.3-0.1,6.41-0.3h230.42c2.36,0.2,4.75,0.3,7.16,0.3 c47.19,0,85.44-38.25,85.44-85.44S2144,1241.85,2096.81,1241.85z"/></svg>