<svg version="1.1" id="YunYinLogo" xmlns="http://www.w3.org/2000/svg" xmlns:xlink="http://www.w3.org/1999/xlink" x="0px" y="0px" width="3968.5px" height="2409.45px" viewBox="0 0 3968.5 2409.45" enable-background="new 0 0 3968.5 2409.45" xml:space="preserve"><circle fill="#F3D759" cx="1705.098" cy="1392.295" r="255.118"/><circle fill="#FFF" cx="2109.775" cy="1501.99" r="283.464"/><polygon fill="#2277AB" points="2164.081,1091 2179.188,1091 2214.35,1032.001 2231.302,1032.001 2269.703,989.288 2270.602,989.288 2270.108,988.838 2270.602,988.289 2269.508,988.289 2239.184,960.603 2217.842,960.603 2209.335,921.666 2177.137,921.666 2177.137,871 2123.241,871 2107.834,658.401 2092.426,871 2040.137,871 2040.137,921.666 2006.334,921.666 1997.826,960.603 1978.091,960.603 1947.77,988.288 1946.673,988.288 1947.167,988.837 1946.674,989.288 1947.572,989.288 1985.973,1032 2002.928,1032 2038.088,1091 2051.587,1091 2051.587,1116.537 2062.498,1116.537 1946.673,2018.269 2270.587,2018.256 2154.678,1116.537 2164.081,1116.537 "/><path fill="#FFF" d="M2336.635,1451.334 c-97.605,0-183.683,49.336-234.671,124.425c-22.32-118.12-126.046-207.466-250.656-207.466 c-124.993,0-228.979,89.895-250.865,208.555c-23.004-7.857-47.672-12.128-73.338-12.128c-125.242,0-226.771,101.529-226.771,226.771 c0,112.954,82.586,206.604,190.667,223.898v1.873h14.842c7.001,0.651,14.091,1,21.263,1s14.261-0.349,21.263-1h764.503 c7.837,0.65,15.759,1,23.764,1c156.553,0,283.464-126.911,283.464-283.464C2620.099,1578.245,2493.188,1451.334,2336.635,1451.334z"/></svg>