<svg x="0px" y="0px" width="50px" height="50px" viewBox="174.5 174.5 50 50" enable-background="new 174.5 174.5 50 50" xml:space="preserve"><path d="M199.375,179.5c-11.027,0-20,8.972-20,20s8.973,20,20,20c11.029,0,20-8.972,20-20S210.404,179.5,199.375,179.5z M206.691,202.137c0.711,0.712,0.711,1.867,0,2.579l-2.1,2.1c-0.357,0.356-0.824,0.534-1.291,0.534s-0.934-0.178-1.289-0.534 l-2.637-2.637l-2.637,2.637c-0.355,0.356-0.822,0.534-1.289,0.534s-0.934-0.178-1.291-0.534l-2.098-2.1 c-0.713-0.712-0.713-1.867,0-2.579l2.635-2.637l-2.635-2.636c-0.713-0.713-0.713-1.868,0-2.58l2.098-2.1 c0.713-0.713,1.869-0.713,2.58,0l2.637,2.637l2.637-2.637c0.713-0.713,1.867-0.713,2.58,0l2.1,2.1c0.711,0.712,0.711,1.867,0,2.58 l-2.637,2.636L206.691,202.137z"/></svg>