<svg x="0px" y="0px" width="50px" height="50px" viewBox="-315.5 -315.5 50 50" enable-background="new -315.5 -315.5 50 50" xml:space="preserve"><path d="M-279.689-277.091c-1.312,1.499-3.234,2.451-5.384,2.451c-1.252,0-2.428-0.323-3.451-0.888 c-1.48,1.179-3.352,1.889-5.392,1.889c-2.823,0-5.323-1.356-6.906-3.446h-0.36c-5.315,0-9.64-4.324-9.64-9.64 c0-3.689,2.055-6.977,5.305-8.604c-0.081-0.401-0.121-0.807-0.121-1.214c0-3.453,2.809-6.263,6.262-6.263 c0.889,0,1.759,0.188,2.561,0.549c2.331-3.213,6.006-5.104,10.007-5.104c6.832,0,12.389,5.558,12.389,12.389 c0,0.09-0.002,0.179-0.006,0.268c2.634,1.785,4.247,4.788,4.247,7.98C-270.178-281.452-274.434-277.161-279.689-277.091z"/></svg>