<?xml version="1.0" encoding="utf-8"?>
<!-- Generator: Adobe Illustrator 16.0.0, SVG Export Plug-In . SVG Version: 6.00 Build 0)  -->
<!DOCTYPE svg PUBLIC "-//W3C//DTD SVG 1.1//EN" "http://www.w3.org/Graphics/SVG/1.1/DTD/svg11.dtd">
<svg version="1.1" id="图层_1" xmlns="http://www.w3.org/2000/svg" xmlns:xlink="http://www.w3.org/1999/xlink" x="0px" y="0px"
	 width="50px" height="50px" viewBox="0 0 50 50" enable-background="new 0 0 50 50" xml:space="preserve">
<path d="M35.81,38.41c-1.31,1.5-3.23,2.45-5.38,2.45c-1.25,0-2.43-0.32-3.45-0.89c-1.48,1.18-3.35,1.89-5.39,1.89
	c-2.82,0-5.32-1.36-6.91-3.45h-0.36c-5.31,0-9.64-4.32-9.64-9.64c0-3.69,2.05-6.98,5.3-8.6c-0.08-0.4-0.12-0.81-0.12-1.21
	c0-3.45,2.81-6.26,6.26-6.26c0.89,0,1.76,0.19,2.56,0.55c2.33-3.21,6.01-5.1,10.01-5.1c6.83,0,12.39,5.56,12.39,12.39
	c0,0.09,0,0.18-0.01,0.27c2.63,1.79,4.25,4.79,4.25,7.98C45.32,34.05,41.07,38.34,35.81,38.41z"/>
</svg>
