<svg x="0px" y="0px" width="1024px" height="1024px" viewBox="0 0 1024 1024" enable-background="new 0 0 1024 1024"><path d="M896.253952-131.132672l-767.85664 0c-70.907904 0-128.397312 53.697536-128.397312 119.926784L0 483.237632l474.366976-278.443008c1.734656-1.902592 3.050496-3.610624 5.497856-5.894144 16.718848-15.616 43.800576-15.616 60.5184 0l484.269056 282.745856 0-492.852224C1024.651264-77.434112 967.161856-131.132672 896.253952-131.132672zM512.171008 254.306048 30.00832 537.305856c-8.296448 7.739392-19.142656 11.6224-30.009344 11.65312L-0.001024 588.427008c0 66.228224 57.490432 119.92576 128.397312 119.92576l767.85664 0c70.907904 0 128.398336-53.697536 128.398336-119.92576l0-40.189952c-10.513408-0.31232-20.918272-4.109312-28.94336-11.594752L512.171008 254.306048z" transform="translate(0, 812) scale(1, -1.125)"/></svg>