<svg x="0px" y="0px" width="1024px" height="1024px" viewBox="0 0 1024 1024"><path d="M225.134 27.429q-4.571-5.157-11.447 1.719-7.424 6.29-2.304 10.862 4.571 5.157 11.447-1.719 6.839-6.29 2.304-10.862zM201.143 62.281q5.157-6.839 0-10.862-4.571-3.438-9.728 3.986t0 10.277q5.157 3.986 9.728-3.438zM166.29 96.585q-2.853-3.986-7.424-1.134-5.705 2.853-3.986 6.839 1.719 2.853 7.424 1.134 5.705-2.853 3.986-6.839zM183.991 77.129q-3.438-3.986-9.143 1.719-5.157 6.29-1.134 9.143 3.438 3.438 9.143-1.719 5.157-6.29 1.134-9.143zM257.719 13.129q-2.304-6.839-10.862-3.438-9.728 2.304-7.424 8.558t10.862 3.986q9.143-2.853 7.424-9.143zM293.705 10.277q0-6.29-9.143-6.29-9.728-1.134-9.728 6.29 0 6.29 9.143 6.29 9.728 1.134 9.728-6.29zM326.839 15.982q1.134-5.705-8.009-8.009t-10.277 4.571 8.009 8.558q9.143 1.134 10.277-5.157zM877.714 562.286v-548.571q0-67.986-48.274-116.297t-116.297-48.274h-128q-9.143 0-14.007 0.585t-11.154 2.853-9.143 8.302-2.853 15.726v136.558q0 55.442-29.696 81.152 32.585 3.438 58.587 10.277t53.723 22.272 46.299 37.998 30.281 60.014 11.703 86.016q0 69.157-45.129 117.723 21.138 52.005-4.571 116.553-16.018 5.157-46.299-6.29t-52.553-25.161l-21.723-13.714q-53.138 14.848-109.714 14.848t-109.714-14.848q-9.143 6.29-24.283 15.433t-47.726 22.016-49.152 7.717q-25.161-64.585-3.986-116.553-45.129-48.567-45.129-117.723 0-48.567 11.703-85.723t29.989-60.014 46.007-38.29 53.723-22.272 58.587-10.277q-22.857-20.553-28.014-58.843-11.995-5.705-25.71-8.558t-32.585-2.853-37.413 12.288-31.707 35.73q-10.862 18.286-27.721 29.696t-28.27 13.714l-11.447 1.719q-11.995 0-16.567-2.56t-2.853-6.583 5.157-8.009 7.424-6.839l3.986-2.853q12.581-5.705 24.869-21.723t17.993-29.147l5.705-13.129q7.424-21.723 25.161-35.145t38.29-17.152 39.717-3.986 31.707 2.011l13.129 2.304q0-21.723 0.293-58.843t0.293-38.839q0-12.581-6.29-19.127t-12.581-7.424-18.871-0.841h-128q-67.986 0-116.297 48.274t-48.274 116.297v548.571q0 67.986 48.274 116.297t116.297 48.274h548.571q67.986 0 116.297-48.274t48.274-116.297z" transform="translate(0, 812) scale(1.11, -1.118)"/></svg>