<svg width="1024px" height="1024px" viewBox="0 0 1024 1024"><path d="M260.86,816.11c-3.55,3.99-8,3.33-13.35-2c-5.77-4.87-6.67-9.08-2.69-12.62c3.55-3.99,8-3.33,13.35,2 C263.49,808.37,264.39,812.57,260.86,816.11z M232.89,775.64c4.01,5.29,4.01,9.5,0,12.61c-3.55,2.66-7.33,1.12-11.34-4.63 c-4.01-5.75-4.01-9.73,0-11.94c4.01-3.08,7.79-1.75,11.34,4V775.64z M192.26,735.79c-2.22,3.09-5.1,3.52-8.66,1.32 c-4.43-2.21-5.98-4.86-4.65-7.94c1.34-2.21,4.22-2.65,8.65-1.32C192.04,730.06,193.59,732.71,192.26,735.79L192.26,735.79z  M212.89,758.39c-2.67,3.09-6.23,2.42-10.66-2c-4.01-4.87-4.45-8.41-1.32-10.62c2.67-2.66,6.22-2,10.66,2 C215.58,752.64,216.02,756.18,212.89,758.39z M298.85,832.72c-1.79,5.3-6.01,6.63-12.66,3.99c-7.56-1.78-10.45-5.1-8.66-9.94 c1.79-4.84,6.01-6.39,12.66-4.63c7.11,2.21,9.99,5.75,8.66,10.62V832.72z M340.81,836.04c0,4.87-3.55,7.3-10.66,7.3 c-7.56,0.88-11.34-1.56-11.34-7.3c0-4.87,3.55-7.31,10.66-7.31C337.03,827.85,340.81,830.29,340.81,836.04z M379.44,829.41 c0.88,4.42-2.23,7.52-9.34,9.3c-7.11,1.78-11.1,0.01-11.98-5.31c-0.88-5.32,2.23-8.64,9.34-9.94c7.11-0.88,11.1,1.12,11.98,5.99 V829.41z M1021.69,194.91v637.14c0,52.64-18.76,97.67-56.28,135.07c-37.52,37.41-82.72,56.1-135.59,56.07H680.59 c-7.11,0-12.55-0.23-16.33-0.68c-3.78-0.45-8.12-1.56-13-3.31c-4.89-1.76-8.44-4.97-10.66-9.64c-2.22-4.67-3.33-10.76-3.33-18.26 v-158.6c0-42.93-11.54-74.35-34.62-94.25c25.33-2.66,48.09-6.64,68.3-11.93c20.21-5.3,41.09-13.92,62.63-25.87 c21.55-11.95,39.54-26.66,53.98-44.13c14.44-17.47,26.21-40.71,35.3-69.7c9.1-29,13.64-62.3,13.64-99.9 c0-53.55-17.54-99.12-52.61-136.73c16.43-40.27,14.65-85.39-5.33-135.37c-12.45-3.99-30.44-1.56-53.98,7.31 c-23.54,8.86-43.96,18.6-61.27,29.22L638,267.24c-41.3-11.5-83.94-17.25-127.91-17.25c-43.97,0-86.61,5.75-127.91,17.25 c-7.11-4.87-16.54-10.85-28.31-17.93c-11.77-7.08-30.32-15.6-55.64-25.57c-25.33-9.97-44.43-12.96-57.31-8.96 c-19.56,50.01-21.11,95.13-4.65,135.37c-35.08,37.6-52.61,83.18-52.61,136.73c0,37.61,4.55,70.79,13.64,99.56 c9.1,28.77,20.75,52,34.96,69.7c14.21,17.7,32.09,32.52,53.64,44.47c21.55,11.95,42.42,20.57,62.63,25.87 c20.21,5.29,42.98,9.27,68.31,11.93c-17.77,15.92-28.65,38.7-32.66,68.34c-9.32,4.42-19.31,7.73-29.97,9.94 c-10.66,2.21-23.32,3.31-37.99,3.31s-29.21-4.76-43.62-14.27c-14.41-9.51-26.74-23.35-36.97-41.5 c-8.44-14.16-19.21-25.66-32.32-34.49c-13.1-8.84-24.09-14.14-32.96-15.93l-13.35-2c-9.32,0-15.76,0.99-19.32,2.97 c-3.55,1.98-4.66,4.53-3.33,7.65c1.34,3.11,3.34,6.21,6.01,9.3c2.67,3.08,5.56,5.73,8.66,7.94l4.65,3.31 c9.78,4.42,19.44,12.83,28.99,25.23c9.55,12.4,16.54,23.69,20.98,33.85l6.65,15.25c5.77,16.82,15.55,30.43,29.33,40.82 c13.79,10.39,28.67,17.03,44.64,19.92c15.98,2.89,31.41,4.43,46.31,4.63c14.9,0.2,27.22-0.58,36.97-2.33l15.31-2.68 c0,16.82,0.11,39.6,0.34,68.34c0.23,28.74,0.34,43.78,0.34,45.11c0,9.74-2.44,17.15-7.33,22.21c-4.89,5.07-9.78,7.94-14.67,8.62 c-4.89,0.68-12.22,1.01-22,0.98H190.3c-52.84,0-98.04-18.69-135.59-56.07C17.16,929.52-1.6,884.5-1.57,831.83V194.69 c0-52.64,18.76-97.67,56.28-135.07C92.23,22.21,137.43,3.52,190.3,3.55h639.57c52.84,0,98.04,18.69,135.59,56.07 c37.55,37.38,56.31,82.4,56.28,135.07L1021.69,194.91z"/></svg>