<svg x="0px" y="0px" width="50px" height="50px" viewBox="244.5 -245.5 50 50" enable-background="new 244.5 -245.5 50 50" xml:space="preserve"><path d="M260.129-222.658v4.984c0,0.829-0.672,1.5-1.5,1.5h-4.984c-0.828,0-1.5-0.671-1.5-1.5v-4.984c0-0.829,0.672-1.5,1.5-1.5 h4.984C259.457-224.158,260.129-223.486,260.129-222.658z M286.938-224.158h-21.504h-0.781c-0.828,0-1.5,0.671-1.5,1.5v4.984 c0,0.829,0.672,1.5,1.5,1.5h0.781h21.504c0.828,0,1.5-0.671,1.5-1.5v-4.984C288.438-223.486,287.766-224.158,286.938-224.158z M258.629-235.533h-4.984c-0.828,0-1.5,0.671-1.5,1.5v4.985c0,0.829,0.672,1.5,1.5,1.5h4.984c0.828,0,1.5-0.671,1.5-1.5v-4.985 C260.129-234.861,259.457-235.533,258.629-235.533z M286.938-235.533h-21.504h-0.781c-0.828,0-1.5,0.671-1.5,1.5v4.985 c0,0.829,0.672,1.5,1.5,1.5h0.781h21.504c0.828,0,1.5-0.671,1.5-1.5v-4.985C288.438-234.861,287.766-235.533,286.938-235.533z M258.629-212.783h-4.984c-0.828,0-1.5,0.671-1.5,1.5v4.985c0,0.829,0.672,1.5,1.5,1.5h4.984c0.828,0,1.5-0.671,1.5-1.5v-4.985 C260.129-212.112,259.457-212.783,258.629-212.783z M286.938-212.783h-21.504h-0.781c-0.828,0-1.5,0.671-1.5,1.5v4.985 c0,0.829,0.672,1.5,1.5,1.5h0.781h21.504c0.828,0,1.5-0.671,1.5-1.5v-4.985C288.438-212.112,287.766-212.783,286.938-212.783z"/></svg>