<svg width="50px" height="50px" viewBox="0 0 50 50"><path d="M12,21.8v6.4c0,1.1-0.9,1.9-1.9,1.9H3.7c-1.1,0-1.9-0.9-1.9-1.9v-6.4c0-1.1,0.9-1.9,1.9-1.9h6.4C11.2,19.9,12,20.8,12,21.8z M46.3,19.9H17.8c-1.1,0-1.9,0.9-1.9,1.9v6.4c0,1.1,0.9,1.9,1.9,1.9h28.5c1.1,0,1.9-0.9,1.9-1.9v-6.4C48.2,20.8,47.3,19.9,46.3,19.9  M10.1,5.4H3.7c-1.1,0-1.9,0.9-1.9,1.9v6.4c0,1.1,0.9,1.9,1.9,1.9h6.4c1.1,0,1.9-0.9,1.9-1.9V7.3C12,6.2,11.2,5.4,10.1,5.4z M46.3,5.4H17.8c-1.1,0-1.9,0.9-1.9,1.9v6.4c0,1.1,0.9,1.9,1.9,1.9h28.5c1.1,0,1.9-0.9,1.9-1.9V7.3C48.2,6.2,47.3,5.4,46.3,5.4z M10.1,34.4H3.7c-1.1,0-1.9,0.9-1.9,1.9v6.4c0,1.1,0.9,1.9,1.9,1.9h6.4c1.1,0,1.9-0.9,1.9-1.9v-6.4C12,35.3,11.2,34.4,10.1,34.4z M46.3,34.4H17.8c-1.1,0-1.9,0.9-1.9,1.9v6.4c0,1.1,0.9,1.9,1.9,1.9h28.5c1.1,0,1.9-0.9,1.9-1.9v-6.4C48.2,35.3,47.3,34.4,46.3,34.4"/></svg>