<svg xmlns="http://www.w3.org/2000/svg" x="0px" y="0px" width="1024px" height="1024px" viewBox="0 0 1024 1024" enable-background="new 0 0 1024 1024" xml:space="preserve"><path d="M0.021489 748.184579c0 35.098379 28.717042 63.815421 63.815421 63.815421l382.89355 0 0-446.708971L0.021489 365.291029 0.021489 748.184579zM319.099618 684.369158 127.652332 684.369158l0-191.447287 191.447287 0L319.099618 684.369158zM191.467753 620.552713l63.815421 0 0-63.815421-63.815421 0 0 63.815421ZM0.021489-145.234387 0.021489 237.659163l446.708971 0 0-446.708971L63.836911-209.049808C28.592198-209.049808 0.021489-180.479099 0.021489-145.234387zM319.099618 110.028321 127.652332 110.028321l0-191.447287 191.447287 0L319.099618 110.028321zM574.362326 812 957.255877 812c35.244712 0 63.815421-28.571732 63.815421-63.815421l0-382.89355L574.362326 365.291029 574.362326 812zM893.440455 684.369158 701.993169 684.369158l0-191.447287 191.447287 0L893.440455 684.369158zM574.362326-81.418966l255.262708 0 0-127.630842-255.262708 0 0 127.630842ZM893.440455-81.418966l127.630842 0 0-127.630842-127.630842 0 0 127.630842ZM893.440455 237.659163l127.630842 0 0-255.262708-127.630842 0 0 255.262708ZM829.624011 237.659163l63.815421 0 0-127.630842-63.815421 0 0 127.630842ZM574.362326 237.659163l127.630842 0 0-127.630842-127.630842 0 0 127.630842ZM701.993169 110.028321l127.630842 0 0-127.630842-127.630842 0 0 127.630842ZM574.362326-17.603545l127.630842 0 0-63.815421-127.630842 0 0 63.815421Z"/></svg>