<svg width="50px" height="50px" viewBox="83 48 50 50"><path d="M85.38,95.63h20.57V75.06H85.38V95.63z M89.49,79.17h12.34v12.31H89.49V79.17z"/><rect x="94" y="83" width="4" height="4"/><rect x="118.28" y="91.51" width="4" height="4"/><rect x="127" y="92" width="4" height="4"/><polygon points="126.51,79.17 122.4,79.17 122.4,75.06 110.05,75.06 110.05,95.63 114.17,95.63 114.17,83.28 118.28,83.28 118.28,87.4 130.63,87.4 130.63,75.06 130.63,75.06 126.51,75.06"/><path d="M85.38,70.94h20.57V50.38H85.38V70.94z M89.49,54.49h12.34v12.34H89.49V54.49z"/><rect x="94" y="59" width="4" height="4"/><path d="M110.05,50.38v20.57h20.57V50.38H110.05z M126.51,66.83h-12.34V54.49h12.34V66.83z"/><rect x="119" y="59" width="4" height="4"/></svg>