<svg width="1024px" height="1024px" viewBox="-12 0 1024 1024"><path d="M608.28,184.06v34.61c26.4,290.98,158.39,489.16,395.97,605.65V160.2c0-84.57-62.21-153.11-146.56-153.11H619.11 C609.18,53.38,608.28,113.68,608.28,184.06z M528.31,536.93c-86.83,200.98-225.93,349.75-422.47,465.8 c16.86,6.41,35.06,10.08,54.14,10.08h697.71c20.42,0,39.86-4.08,57.65-11.38C739.42,891.39,608.02,736.88,528.31,536.93z  M423.49,225.59V7.09H159.98C75.65,7.09,1.13,75.63,1.13,160.2v699.5c0,1.84,2.63,3.59,2.68,5.38 C279.23,725.67,423.49,512.53,423.49,225.59z"/></svg>