<svg x="0px" y="0px" width="1000px" height="1024px" viewBox="0 0 1000 1024" ><path d="M605.1976 624.0583v-34.40540013890068c26.3114-289.2857 157.8797-486.3223 394.695-602.1345V647.7763399169594C999.8926 731.8537 937.8851 800 853.807 800H615.9912062106138C606.0957 753.9792 605.1976 694.0295 605.1976 624.0583zM525.4889 273.2304C438.9437 73.4183 300.2854-74.4872 104.3775-189.8622c16.8056-6.3717 34.9478-10.0216 53.9631-10.0216h695.4663269066222c20.3531 0 39.7282 4.0596 57.4582 11.3082C735.9128-79.1639 604.9403 74.4475 525.4889 273.2304zM421.0064 582.7653V800H158.34067190047028C74.2875 800 0 731.8537 0 647.7763v-695.4365128932812c0-1.8262 2.6194-3.5737 2.6731-5.3462C277.2092 85.597 421.0064 297.4893 421.0064 582.7653z" transform="translate(0, 812) scale(1, -1)"/></svg>