<svg width="500" height="500" viewBox="0 0 600 600"><g></g><path d="M216.781 22.144c-111.385 18.688-196.301 115.507-196.301 232.218 0 58.009 21.017 111.078 55.782 152.090 82.458-39.911 140.083-130.176 140.518-235.264v-149.043zM256.026 313.805c-14.669 60.749-58.496 112.666-113.101 147.175 33.561 18.406 72.089 28.877 113.075 28.877 41.011 0 79.514-10.471 113.101-28.902-54.605-34.509-98.406-86.4-113.075-147.149zM295.271 170.061c0 105.574 57.753 196.327 140.467 236.391 34.765-41.063 55.783-94.106 55.783-152.089 0-116.685-84.864-213.504-196.25-232.192v147.891z"/></svg>