<svg width="50px" height="50px" viewBox="487 487 50 50"><path d="M502.14,501.56v0.78c1.06,7.91,3.68,13.56,8.75,16.81c-0.87-2.16-1.39-4.63-1.39-7.21c0-3.33,0.77-6.47,2.19-9.01 c1.42,2.55,2.19,5.68,2.19,9.01c0,2.9-0.6,5.65-1.69,8c0.07,0.03-0.05,0.07,0.02,0.1c5.78-3.95,7.88-9.84,8.93-17.69v-6.95 c-4.22,0.52-7.49,3.32-9.65,7.39c-2.07-3.9-5.25-6.65-9.14-7.33C502.29,496.57,502.14,501.19,502.14,501.56z M526.4,501.17v0.98 c0,8.36,3.21,14.01,8.9,17.29c0.92-2.25,1.7-4.79,1.7-7.5c0-8.13-5.32-14.87-10.6-16.35C526.4,496.97,526.4,498.88,526.4,501.17z  M497.92,502.54v-6.97c-6.33,1.41-10.92,8.19-10.92,16.37c0,3.09,0.65,5.97,1.83,8.45C494.88,516.45,497.92,510.5,497.92,502.54z  M500.58,511.56c-1.76,5.28-4.95,9.53-9.18,12.62c2.39,2.74,5.57,4.42,9.07,4.42c3.41,0,6.51-1.6,8.87-4.2 C505.29,521.46,502.52,517.13,500.58,511.56z M523.5,511.16c-1.99,5.5-5.09,9.89-9.57,13.19c2.37,2.64,5.49,4.25,8.92,4.25 c3.56,0,6.79-1.73,9.19-4.55C528.18,520.95,525.27,516.67,523.5,511.16z"/></svg>