<svg xmlns="http://www.w3.org/2000/svg" width="1024px" height="1024px" viewBox="0 0 1024 1024" enable-background="new 0 0 1024 1024" xml:space="preserve"><path d="M335.2525 454.5001v-11.61216c18.9204-117.2029 65.963-200.8381 156.8573-248.9508-15.6754 32.0645-25.001 68.5199-25.001 106.7817 0 49.3271 13.7492 95.746 39.1844 133.4774 25.4054-37.7313 39.3308-84.1492 39.3308-133.4774 0-42.9496-10.7889-83.6813-30.3319-118.3928 1.1796-0.5089-0.898-0.9841 0.3113-1.4858C619.2159 239.3556 656.7557 326.6353 675.6618 442.8879V545.7671680000001c-75.6378-7.6472-134.2976-49.1448-172.9935-109.4748-37.0647 57.7915-94.0411 98.4678-163.8308 108.5184C337.9415 528.4616 335.2525 460.0031 335.2525 454.5001zM770.2077 460.3144v-14.515200000000002c0-123.7453 57.5468-207.5156 159.529-256.0829 16.3953 33.3793 30.3749 70.997 30.3749 111.0016 0 120.3251-95.3324 220.1979-189.9039 242.0695C770.2077 522.5644 770.2077 494.2671 770.2077 460.3144zM259.6147 439.9839V543.1877119999999C146.1504 522.3677 63.9416 421.9594 63.9416 300.7178c0-45.7871 11.646-88.4726 32.7363-125.1983C205.1082 234.036 259.6147 322.1481 259.6147 439.9839zM307.3352 306.5137c-31.5023-78.2172-88.6692-141.1594-164.5926-186.9599 42.7674-40.534 99.7581-65.4797 162.6388-65.4797 61.143 0 116.6684 23.6216 158.9862 62.2019C391.8234 159.8144 342.1757 223.8779 307.3352 306.5137zM718.1568 312.3218c-35.586-81.4879-91.178-146.4924-171.5814-195.326 42.4397-39.0277 98.3183-62.9217 159.8546-62.9217 63.8577 0 121.7044 25.6922 164.6725 67.3874C802.0214 167.3418 749.8639 230.8052 718.1568 312.3218z" transform="translate(0, 812) scale(1, -1)"/></svg>