<svg width="50px" height="50px" viewBox="487 487 50 50"><path d="M534.5,503.7c-0.9,0-1.5-0.7-1.5-1.7c0-5.9-3.9-10.4-9.1-10.4c-0.9,0-1.5-0.7-1.5-1.7c0-1,0.6-1.7,1.5-1.7 c6.7,0,12.4,6.3,12.4,14.3C536,503,535.1,503.7,534.5,503.7z M526.9,503.7c-0.9,0-1.5-0.7-1.5-1.7s-0.6-1.7-1.5-1.7 c-0.9,0-1.5-0.7-1.5-1.7c0-1,0.6-1.7,1.5-1.7c2.7,0,4.8,2.4,4.8,5.6C528.5,503,527.8,503.7,526.9,503.7z M506.9,535.8 c-9.4,0-19.1-5.6-19.1-15c0-4.5,2.4-10.1,6.7-15.3c4.2-4.9,8.8-8,12.4-8c1.5,0,2.7,0.3,3.6,1.7c0.6,0.7,1.5,2.4,1.2,5.2 c1.8-0.7,3.3-1,4.8-1c2.7,0,4.2,1.4,4.9,2.4c0.9,1.4,0.9,3.5,0.3,5.6c3.3,1.4,5.5,4.5,5.5,8.4C527.2,527.4,519.1,535.8,506.9,535.8z  M506.6,501.3c-2.4,0-6.7,2.8-10,7c-3.6,4.5-5.8,9.1-5.8,12.5c0,5.6,6.1,11.5,16.1,11.5c10.6,0,17.3-7,17.3-12.2 c0-3.1-2.7-4.5-3.9-4.9c-0.3,0-1.2-0.3-1.8-1.4c-0.3-0.7,0.6-4.5,0.3-5.2c-0.6-0.7-1.5-0.7-2.1-0.7c-1.5,0-6.1,1.7-6.4,1.7 c-0.9,0-1.5-0.3-1.5-0.7c-0.3-0.3-0.6-1-0.3-2.1C508.7,505.1,507.2,501.3,506.6,501.3z"/></svg>