<svg xmlns="http://www.w3.org/2000/svg" width="1024px" height="1024px" viewBox="0 0 1024 1024" enable-background="new 0 0 1024 1024" xml:space="preserve"><path d="M992 517.6c-19.2 0-32 12.8-32 32 0 108.8-83.2 192-192 192-19.2 0-32 12.8-32 32 0 19.2 12.8 32 32 32 140.8 0 262.4-115.2 262.4-262.4C1024 530.4 1004.8 517.6 992 517.6zM832 517.6c-19.2 0-32 12.8-32 32 0 19.2-12.8 32-32 32-19.2 0-32 12.8-32 32s12.8 32 32 32c57.6 0 102.4-44.8 102.4-102.4C864 530.4 851.2 517.6 832 517.6zM409.6-71.2c-198.4 0-403.2 102.4-403.2 275.2 0 83.2 51.2 185.6 140.8 281.6 89.6 89.6 185.6 147.2 262.4 147.2 32 0 57.6-6.4 76.8-32 12.8-12.8 32-44.8 25.6-96 38.4 12.8 70.4 19.2 102.4 19.2 57.6 0 89.6-25.6 102.4-44.8 19.2-25.6 19.2-64 6.4-102.4 70.4-25.6 115.2-83.2 115.2-153.6C838.4 82.4 665.6-71.2 409.6-71.2zM403.2 562.4c-51.2 0-140.8-51.2-211.2-128-76.8-83.2-121.6-166.4-121.6-230.4 0-102.4 128-211.2 339.2-211.2 224 0 364.8 128 364.8 224 0 57.6-57.6 83.2-83.2 89.6-6.4 0-25.6 6.4-38.4 25.6-6.4 12.8-6.4 25.6 0 38.4 12.8 25.6 12.8 44.8 6.4 57.6-12.8 12.8-32 12.8-44.8 12.8-32 0-70.4-6.4-108.8-25.6-6.4 0-19.2-6.4-25.6-6.4-19.2 0-32 6.4-32 12.8-6.4 6.4-12.8 19.2-6.4 38.4 6.4 32 6.4 57.6 0 70.4C428.8 556 416 562.4 403.2 562.4z" transform="translate(0, 812) scale(1, -1)"/></svg>