<svg x="0px" y="0px" width="1000px" height="1024px" viewBox="0 0 1000 1024" enable-background="new 0 0 1000 1024"><path d="M282.4655 516.4627c-22.2231 0-44.6485-14.6857-44.6485-36.9836 0-22.2466 22.4267-37.1097 44.6485-37.1097 22.2193 0 37.0064 14.8644 37.0064 37.1097C319.4719 501.777 304.6848 516.4627 282.4655 516.4627zM586.3809 301.4077c-14.7633 0-29.6553-14.8656-29.6553-29.6538 0-14.993 14.892-29.6538 29.6553-29.6538 22.4229 0 37.1088 14.6608 37.1088 29.6538C623.4897 286.5409 608.8038 301.4077 586.3809 301.4077zM997.2969 648.1723C997.2969 732.0311 929.3274 800 845.4691 800H151.83151898971352C67.972 800 0 732.0311 0 648.1723v-693.634051653068c0-83.8588 67.972-151.8277 151.8315-151.8277h693.6376184319824c83.8595 0 151.829 67.9689 151.829 151.8277V648.1723068006376zM378.7787 138.122c-37.0089 0-66.7641 7.5608-103.8504 14.8906l-103.6468-51.9753 29.6528 89.19c-74.2213 51.8717-118.6375 118.7151-118.6375 200.1656 0 141.0629 133.5032 252.1397 296.4819 252.1397 145.7833 0 273.4943-88.754 299.15-208.2124-9.4346 1.0505-18.9429 1.7438-28.5511 1.7438-140.8355 0-252.0657-105.1061-252.0657-234.6372 0-21.5546 3.3564-42.3135 9.1473-62.1243C397.3119 138.5829 388.0847 138.122 378.7787 138.122zM816.1224 34.2712l22.2993-74.0933-81.3226 44.5444c-29.6528-7.4322-59.4355-14.8919-88.9609-14.8919-141.0666 0-252.1694 96.4186-252.1694 215.1599 0 118.5352 111.1028 215.1587 252.1694 215.1587 133.2222 0 251.8346-96.6234 251.8346-215.1587C919.9728 138.122 875.6353 78.9193 816.1224 34.2712zM749.4582 301.4077c-14.6584 0-29.4455-14.8656-29.4455-29.6538 0-14.993 14.7871-29.6538 29.4455-29.6538 22.2231 0 37.1125 14.6608 37.1125 29.6538C786.5707 286.5409 771.6813 301.4077 749.4582 301.4077zM489.959 442.3682c22.3255 0 37.1125 14.8644 37.1125 37.1097 0 22.2978-14.7871 36.9836-37.1125 36.9836-22.2193 0-44.5186-14.6857-44.5186-36.9836C445.4404 457.2326 467.7397 442.3682 489.959 442.3682z" transform="translate(0, 812) scale(1, -1)"/></svg>