<svg width="1024px" height="1024px" viewBox="-12 0 1024 1024">
<path d="M284.67,293.1c-22.4,0-45,14.98-45,37.72c0,22.69,22.6,37.85,45,37.85c22.39,0,37.3-15.16,37.3-37.85 C321.97,308.07,307.07,293.1,284.67,293.1z M590.97,512.41c-14.88,0-29.89,15.16-29.89,30.24c0,15.29,15.01,30.24,29.89,30.24 c22.6,0,37.4-14.95,37.4-30.24C628.36,527.58,613.56,512.41,590.97,512.41z M1005.09,158.77c0-85.52-68.5-154.84-153.02-154.84 H153.02C68.5,3.94,0,73.25,0,158.77v707.39C0,951.68,68.5,1021,153.02,1021h699.06c84.52,0,153.02-69.32,153.02-154.84 L1005.09,158.77L1005.09,158.77z M381.74,678.94c-37.3,0-67.29-7.71-104.66-15.18l-104.46,53l29.88-90.96 C127.7,572.9,82.94,504.73,82.94,421.67c0-143.86,134.55-257.14,298.8-257.14c146.92,0,275.63,90.51,301.49,212.34 c-9.51-1.07-19.09-1.78-28.77-1.78c-141.94,0-254.04,107.19-254.04,239.29c0,21.98,3.38,43.15,9.22,63.35 C400.42,678.47,391.12,678.94,381.74,678.94z M822.5,784.85l22.47,75.56l-81.96-45.43c-29.88,7.58-59.9,15.19-89.66,15.19 c-142.17,0-254.14-98.33-254.14-219.43c0-120.88,111.97-219.42,254.14-219.42c134.26,0,253.8,98.54,253.8,219.42 C927.17,678.94,882.48,739.31,822.5,784.85z M755.32,512.41c-14.77,0-29.68,15.16-29.68,30.24c0,15.29,14.9,30.24,29.68,30.24 c22.4,0,37.4-14.95,37.4-30.24C792.72,527.58,777.72,512.41,755.32,512.41z M493.79,368.66c22.5,0,37.4-15.16,37.4-37.85 c0-22.74-14.9-37.72-37.4-37.72c-22.39,0-44.87,14.98-44.87,37.72C448.92,353.5,471.4,368.66,493.79,368.66z"/></svg>