<svg x="0px" y="0px" width="1000px" height="1024px" viewBox="0 0 1000 1024" ><path d="M417.1454 345.2776c-140.4521-6.4854-254.0094-81.7203-254.0094-175.567 0-93.718 113.5561-164.1601 254.0094-157.5973 140.552 6.4092 254.3154 94.385 254.3154 188.1018C671.4608 293.8307 557.6974 351.7642 417.1454 345.2776zM512.8378 109.2401c-43.0146-55.5216-128.1195-82.6184-210.7624-37.8592-39.3247 21.3235-37.8882 63.2373-37.8882 63.2373s-16.3297 132.3241 124.9393 148.8548C530.6028 299.8813 555.8499 164.7892 512.8378 109.2401zM418.0947 197.8568c-9.0511-6.5616-10.8961-19.0963-5.9745-26.917 4.7167-7.9955 15.7139-8.9199 24.6351-2.2534 8.7401 6.8938 12.1277 18.9152 7.3835 26.9145C439.4197 203.3953 428.5523 205.65 418.0947 197.8568zM351.137 179.6585c-26.4039-2.7443-45.2705-25.7366-45.2705-47.7321 0-22.0455 21.2525-37.2709 47.6301-34.1681 26.2739 2.9979 47.6513 23.2983 47.6513 45.2701C401.1492 165.0977 381.4356 182.5552 351.137 179.6585zM845.6215 800H151.85650134592444C67.9795 800 0 732.0174 0 648.1448v-693.7577132350369c0-83.8725 67.9795-151.8552 151.8565-151.8552h693.7637793308476c83.8733 0 151.8565 67.9826 151.8565 151.8552V648.1448264490889C997.478 732.0174 929.4948 800 845.6215 800zM797.0171 138.0008C739.1093 15.0113 548.1629-44.8447 406.6628-33.7701 272.1853-23.1839 99.3061 21.4941 81.4387 184.2203c0 0-9.4596 73.6961 62.01 169.0804 0 0 102.7687 143.4999 222.4541 184.4619 119.8154 40.7584 133.7855-28.2211 133.7855-68.9807-6.358-34.5803-18.2758-54.9345 26.6824-40.9632 0 0 117.7656 54.6259 166.2388 6.1781 39.0924-39.117 6.4617-92.9498 6.4617-92.9498s-16.2285-17.9434 17.1491-24.4026C749.6968 309.9554 854.9012 261.199 797.0171 138.0008zM680.8966 477.8328c-12.8172 0-23.0987 10.3563-23.0987 23.071 0 12.9445 10.2815 23.3271 23.0987 23.3271 0 0 144.3693 26.6847 127.0927-128.4269 0-0.9218-0.1012-1.6388-0.3085-2.4607-1.6126-10.9971-11.277-19.4299-22.659-19.4299-12.8697 0-23.3273 10.2789-23.3273 23.121C761.6946 397.0331 784.5859 500.6978 680.8966 477.8328zM924.933 353.7628h-0.2048553209295935c-3.7911-26.2487-16.8169-28.351-32.3472-28.351-18.5606 0-33.5575 11.6629-33.5575 30.2484 0 16.0972 6.6665 32.4518 6.6665 32.4518 1.9711 6.7677 17.6625 48.885-10.3589 111.8163-51.3437 86.2321-154.7257 87.4874-166.9546 82.5672-12.3051-4.8191-30.4785-7.2548-30.4785-7.2548-18.6868 0-33.6575 15.2004-33.6575 33.6822 0 15.5089 10.3564 28.632 24.5314 32.6579 0 0 0.3085 0.5121 0.7969 0.6146 1.0243 0.2049 2.0773 1.2304 3.1765 1.3328 14.4086 2.768 65.7298 12.8421 115.6371 1.1542C857.4906 623.8435 980.0716 537.5077 924.933 353.7628z" transform="translate(0, 812) scale(1, -1)"/></svg>