<svg width="1024px" height="1024px" viewBox="-12 0 1024 1024"><path d="M418.12,469.77c-142.63,6.61-257.94,83.3-257.94,178.96c0,95.53,115.31,167.33,257.94,160.64 c142.73-6.53,258.25-96.21,258.25-191.73C676.38,522.21,560.85,463.16,418.12,469.77z M515.3,710.37 c-43.68,56.59-130.1,84.21-214.02,38.59c-39.93-21.73-38.47-64.46-38.47-64.46s-16.58-134.88,126.87-151.73 C533.34,516.04,558.97,653.75,515.3,710.37z M419.09,620.04c-9.19,6.69-11.07,19.46-6.07,27.44c4.79,8.15,15.96,9.09,25.02,2.3 c8.88-7.03,12.32-19.28,7.5-27.43C440.74,614.39,429.71,612.1,419.09,620.04z M351.09,638.59c-26.81,2.8-45.97,26.23-45.97,48.65 c0,22.47,21.58,37.99,48.37,34.83c26.68-3.06,48.39-23.75,48.39-46.15C401.88,653.43,381.86,635.64,351.09,638.59z M853.23,6.27 h-704.5C63.56,6.27-5.48,75.56-5.48,161.05v707.16c0,85.49,69.03,154.79,154.21,154.79h704.5c85.17,0,154.21-69.29,154.21-154.79 V161.05C1007.44,75.56,938.4,6.27,853.23,6.27z M803.87,681.05c-58.8,125.37-252.71,186.38-396.39,175.09 c-136.56-10.79-312.11-56.33-330.26-222.2c0,0-9.61-75.12,62.97-172.35c0,0,104.36-146.27,225.9-188.02 c121.67-41.55,135.86,28.77,135.86,70.31c-6.46,35.25-18.56,55.99,27.1,41.75c0,0,119.59-55.68,168.81-6.3 c39.7,39.87,6.56,94.75,6.56,94.75s-16.48,18.29,17.41,24.87C755.82,505.78,862.65,555.47,803.87,681.05z M685.96,334.66 c-13.02,0-23.46-10.56-23.46-23.52c0-13.19,10.44-23.78,23.46-23.78c0,0,146.6-27.2,129.06,130.91c0,0.94-0.1,1.67-0.31,2.51 c-1.64,11.21-11.45,19.81-23.01,19.81c-13.07,0-23.69-10.48-23.69-23.57C768,417.02,791.25,311.35,685.96,334.66z M933.77,461.12 h-0.21c-3.85,26.76-17.08,28.9-32.85,28.9c-18.85,0-34.08-11.89-34.08-30.83c0-16.41,6.77-33.08,6.77-33.08 c2-6.9,17.94-49.83-10.52-113.98c-52.14-87.9-157.12-89.18-169.54-84.16c-12.5,4.91-30.95,7.4-30.95,7.4 c-18.98,0-34.18-15.49-34.18-34.33c0-15.81,10.52-29.19,24.91-33.29c0,0,0.31-0.52,0.81-0.63c1.04-0.21,2.11-1.25,3.22-1.36 c14.63-2.82,66.75-13.09,117.43-1.18C865.28,185.83,989.76,273.83,933.77,461.12z"/></svg>