<?xml version="1.0" encoding="utf-8"?>
<!-- Generator: Adobe Illustrator 16.0.0, SVG Export Plug-In . SVG Version: 6.00 Build 0)  -->
<!DOCTYPE svg PUBLIC "-//W3C//DTD SVG 1.1//EN" "http://www.w3.org/Graphics/SVG/1.1/DTD/svg11.dtd">
<svg version="1.1" id="图层_1" xmlns="http://www.w3.org/2000/svg" xmlns:xlink="http://www.w3.org/1999/xlink" x="0px" y="0px"
	 width="240px" height="240px" viewBox="0 0 240 240" enable-background="new 0 0 240 240" xml:space="preserve">
<g>
	<path d="M165.03,118.84c-2.5-1.58-5.29-2.85-8.39-3.83c-0.65-0.22-1.12-0.38-1.39-0.49s-0.6-0.31-0.98-0.61
		c-0.38-0.3-0.5-0.64-0.37-1.02s0.26-0.92,0.37-1.63c2.44-6.25,2.44-11.08,0-14.5c-2.5-3.31-6.65-4.97-12.47-4.97
		s-12.49,1.6-20.04,4.81l-0.49,0.16c-0.32,0.11-0.69,0.2-1.1,0.29c-0.41,0.08-0.8,0.09-1.18,0.04c-0.38-0.05-0.65-0.24-0.81-0.57
		s-0.14-0.87,0.08-1.63c2.44-7.88,1.9-13.55-1.63-17.03c-4.02-4.02-10.71-4.21-20.08-0.57c-9.37,3.64-18.64,10.05-27.82,19.23
		c-6.95,6.95-12.32,13.96-16.09,21.02c-3.78,7.06-5.66,13.71-5.66,19.96c0,5.87,1.77,11.28,5.29,16.25
		c3.53,4.97,8.19,9.07,13.97,12.3c5.78,3.23,12.32,5.76,19.59,7.58c7.28,1.82,14.75,2.73,22.41,2.73c7.66,0,15-0.84,22.04-2.53
		c7.03-1.68,13.17-3.94,18.41-6.76s9.82-6.02,13.73-9.57c3.91-3.56,6.87-7.28,8.88-11.16c2.01-3.88,3.02-7.67,3.02-11.36
		c0-3.48-0.92-6.64-2.77-9.49C169.7,122.63,167.53,120.41,165.03,118.84z M138.43,156.2c-7.96,6.44-17.99,10.28-30.1,11.53
		c-7.93,0.76-15.39,0.19-22.36-1.71s-12.64-4.86-16.99-8.88c-4.35-4.02-6.76-8.64-7.25-13.85c-0.76-7.93,2.84-15.11,10.79-21.55
		s17.99-10.28,30.1-11.53c7.93-0.76,15.38-0.19,22.36,1.71c6.98,1.9,12.64,4.86,16.99,8.88c4.35,4.02,6.76,8.64,7.25,13.85
		C149.99,142.58,146.39,149.76,138.43,156.2z"/>
	<path d="M110.69,122.43c-5.76-1.47-11.47-0.95-17.15,1.55c-5.68,2.5-9.79,6.27-12.34,11.32c-2.55,5.16-2.73,10.25-0.53,15.28
		c2.2,5.02,6.21,8.46,12.02,10.31c6.03,1.96,12.11,1.63,18.25-0.98c6.14-2.61,10.43-6.68,12.87-12.22
		c2.44-5.43,2.38-10.61-0.21-15.52C121.02,127.25,116.72,124,110.69,122.43z M101.97,148.82c-1.2,1.85-2.89,3.14-5.09,3.87
		c-2.2,0.73-4.22,0.67-6.07-0.2c-1.85-0.87-3.01-2.24-3.5-4.12c-0.49-1.87-0.14-3.73,1.06-5.58c1.14-1.79,2.77-3.04,4.89-3.75
		c2.12-0.71,4.1-0.68,5.95,0.08c1.9,0.81,3.12,2.17,3.67,4.07S103.11,146.98,101.97,148.82z M109.63,138.96
		c-0.38,0.71-0.98,1.21-1.79,1.51c-0.81,0.3-1.6,0.31-2.36,0.04c-1.63-0.76-1.98-1.98-1.06-3.67c0.38-0.71,0.96-1.21,1.75-1.51
		s1.56-0.31,2.32-0.04c0.71,0.27,1.18,0.78,1.43,1.51C110.16,137.54,110.06,138.26,109.63,138.96z"/>
	<path d="M163.4,103.24c0.6,1.17,1.52,1.97,2.77,2.4c1.25,0.38,2.46,0.27,3.63-0.33c1.17-0.6,1.97-1.52,2.4-2.77
		c1.03-3.04,1.21-6.23,0.53-9.57s-2.16-6.29-4.44-8.84c-2.28-2.55-5.03-4.33-8.23-5.34c-3.21-1-6.44-1.15-9.7-0.45
		c-1.3,0.27-2.31,0.96-3.02,2.08c-0.71,1.11-0.92,2.32-0.65,3.63c0.22,1.3,0.9,2.31,2.04,3.01c1.14,0.71,2.36,0.92,3.67,0.65
		c3.42-0.71,6.33,0.24,8.72,2.85c2.39,2.61,3.04,5.62,1.96,9.04C162.69,100.86,162.8,102.07,163.4,103.24z"/>
	<path d="M192.2,88.98c-1.38-6.87-4.44-12.91-9.17-18.13c-4.72-5.27-10.37-8.92-16.95-10.96c-6.57-2.04-13.2-2.35-19.88-0.94
		c-1.52,0.33-2.7,1.13-3.54,2.4c-0.84,1.28-1.1,2.68-0.77,4.2c0.32,1.52,1.14,2.7,2.44,3.54c1.3,0.84,2.71,1.1,4.24,0.77
		c4.72-0.98,9.42-0.75,14.1,0.69c4.67,1.44,8.69,4.03,12.06,7.78c3.37,3.69,5.54,7.98,6.52,12.87c0.98,4.89,0.71,9.56-0.81,14.01
		c-0.44,1.47-0.3,2.88,0.41,4.24c0.71,1.36,1.79,2.28,3.26,2.77c1.47,0.49,2.88,0.38,4.24-0.33c1.36-0.71,2.28-1.79,2.77-3.26
		C193.22,102.41,193.59,95.85,192.2,88.98z"/>
</g>
</svg>
