<svg width="50px" height="50px" viewBox="0 0 50 50"><path d="M23.28,10.34v9.57c0,2.01-1.57,3.65-3.5,3.65H10.6c-1.93,0-3.5-1.63-3.5-3.65v-9.57c0-2.01,1.57-3.65,3.5-3.65h9.18 C21.72,6.69,23.28,8.32,23.28,10.34z M38.73,6.69h-9.18c-1.93,0-3.5,1.63-3.5,3.65v9.57c0,2.01,1.57,3.65,3.5,3.65h9.18 c1.93,0,3.5-1.63,3.5-3.65v-9.57C42.23,8.32,40.66,6.69,38.73,6.69z M19.78,26.44H10.6c-1.93,0-3.5,1.63-3.5,3.65v9.57 c0,2.01,1.57,3.65,3.5,3.65h9.18c1.93,0,3.5-1.63,3.5-3.65v-9.57C23.28,28.08,21.72,26.44,19.78,26.44z M38.73,26.44h-9.18 c-1.93,0-3.5,1.63-3.5,3.65v9.57c0,2.01,1.57,3.65,3.5,3.65h9.18c1.93,0,3.5-1.63,3.5-3.65v-9.57 C42.23,28.08,40.66,26.44,38.73,26.44z"/></svg>