<svg x="0px" y="0px" width="1417px" height="1417px" viewBox="0 0 1417 1417"><circle cx="521" cy="748" r="186"/><circle cx="818" cy="829" r="207"/><polygon points="857.456,526.371 868.509,526.371 894.234,483.269 906.638,483.269 934.734,452.064 935.391,452.064 935.03,451.734 935.391,451.335 934.591,451.335 912.404,431.107 896.79,431.107 890.566,402.661 867.008,402.661 867.008,365.646 827.576,365.646 816.303,210.329 805.03,365.646 766.773,365.646 766.773,402.661 742.041,402.661 735.816,431.107 721.377,431.107 699.193,451.334 698.391,451.334 698.752,451.734 698.392,452.064 699.049,452.064 727.145,483.268 739.549,483.268 765.273,526.371 775.15,526.371 775.15,545.027 783.134,545.027 698.391,1203.805 935.381,1203.796 850.576,545.027 857.456,545.027 "/><path d="M983.704,791.936c-71.413,0-134.392,36.097-171.696,91.035c-16.33-86.422-92.221-151.791-183.391-151.791 c-91.45,0-167.531,65.771-183.543,152.588c-16.831-5.749-34.879-8.873-53.657-8.873c-91.633,0-165.916,74.283-165.916,165.916 c0,82.642,60.424,151.16,139.5,163.813v0.64h643.342c102.925-12.187,182.756-99.729,182.756-205.933 C1191.099,884.79,1098.245,791.936,983.704,791.936z"/></svg>