<svg width="50px" height="50px" viewBox="683.5 683.5 50 50"><circle cx="700" cy="710" r="8.8"/><circle cx="713" cy="714" r="9.7"/><polygon points="715.4,699.38 715.94,699.38 717.17,697.44 717.77,697.44 719.12,696.02 719.16,696.02 719.14,696.01 719.16,695.99 719.12,695.99 718.05,695.08 717.3,695.08 717,693.8 715.87,693.8 715.87,692.12 713.97,692.12 713.43,685.11 712.88,692.12 711.04,692.12 711.04,693.8 709.85,693.8 709.55,695.08 708.86,695.08 707.79,695.99 707.75,695.99 707.77,696.01 707.75,696.02 707.78,696.02 709.13,697.44 709.73,697.44 710.97,699.38 711.44,699.38 711.44,700.22 711.83,700.22 707.75,729.97 719.16,729.97 715.07,700.22 715.4,700.22"/><path d="M721.48,711.98c-3.44,0-27.6,3.83-28.5,3.83c-4.41,0-7.98,3.43-7.98,7.66c0,3.82,2.91,6.98,6.71,7.57v0.03h30.96 c4.95-0.56,8.8-4.61,8.8-9.51C731.46,716.26,726.99,711.98,721.48,711.98z"/></svg>